<svg width="846" height="176" viewBox="0 0 846 176" fill="none" xmlns="http://www.w3.org/2000/svg">
<g clip-path="url(#clip0_663_197)">
<path d="M70.8248 8.22349C59.8669 6.06625 48.5404 6.73828 37.9141 10.1762C21.2567 15.71 1.85317 29.8122 0.181943 65.3469C-2.79175 128.523 30.9899 161.734 79.2555 168.487C115.74 173.592 140.345 135.713 150.177 116.937C155.225 107.392 157.8 96.7335 157.666 85.9359C157.25 61.3674 144.379 22.1538 70.8248 8.22349Z" fill="white"/>
<path d="M108.16 64.0427C109.498 61.9784 110.195 59.5635 110.163 57.1031C110.163 55.5248 109.85 53.9622 109.242 52.5061C108.633 51.05 107.741 49.7295 106.619 48.6211C104.255 46.1536 100.864 44.2002 96.4469 42.7609C91.2485 41.2116 85.8404 40.4832 80.4177 40.6018C71.9416 40.5147 63.5757 42.528 56.0662 46.4621C48.7651 50.2714 42.7178 56.1082 38.6503 63.2717C35.1168 69.2486 33.0299 76.363 32.3896 84.6146C37.1707 80.0967 43.7509 76.2676 52.3573 76.2677C55.5446 76.2511 58.6797 77.0768 61.4457 78.6615C61.788 77.5151 62.2048 76.3924 62.6935 75.3006C64.4254 71.3369 67.3301 67.9999 71.0161 65.7392C75.0827 63.3809 79.7267 62.2058 84.4249 62.3464C88.0552 62.2791 91.6649 62.9073 95.0595 64.197C96.0057 64.5758 96.9278 64.9788 97.8257 65.406C101.428 67.1202 105.907 67.3371 108.16 64.0427Z" fill="black"/>
<path d="M52.3561 85.5137C45.3514 85.5136 40.0972 89.3533 36.1744 94.0752C34.9549 95.5856 34.1005 97.3575 33.6781 99.2527C33.2556 101.148 33.2765 103.115 33.7391 105.001C42.5755 142.756 84.2614 143.237 102.09 136.376C118.586 130.028 110.054 107.364 102.09 107.364C94.1258 107.364 88.4431 110.345 81.9287 110.345C65.4907 110.345 65.2812 85.5138 52.3561 85.5137Z" fill="black"/>
</g>
<path d="M253.434 65.1889C253.434 66.7511 253.004 68.1181 252.145 69.2897C251.286 70.3833 250.309 71.2425 249.216 71.8674C247.185 70.5395 244.92 69.3288 242.42 68.2352C239.921 67.1417 236.835 66.5949 233.164 66.5949C226.525 66.5949 221.213 68.7429 217.229 73.039C213.324 77.3351 211.371 83.5449 211.371 91.6684C211.371 99.9481 213.402 106.158 217.464 110.298C221.526 114.438 226.993 116.508 233.867 116.508C237.46 116.508 240.545 116.039 243.123 115.102C245.779 114.086 248.122 112.914 250.153 111.587C251.247 112.29 252.145 113.266 252.848 114.516C253.551 115.687 253.902 117.054 253.902 118.617C253.902 119.944 253.551 121.155 252.848 122.249C252.145 123.342 250.973 124.319 249.333 125.178C247.771 126.115 245.545 126.974 242.654 127.755C239.842 128.615 236.327 129.044 232.109 129.044C226.954 129.044 222.15 128.302 217.698 126.818C213.324 125.256 209.496 122.952 206.216 119.905C202.935 116.781 200.358 112.875 198.483 108.189C196.608 103.502 195.671 97.9954 195.671 91.6684C195.671 85.5758 196.608 80.2252 198.483 75.6167C200.358 70.93 202.896 67.0245 206.099 63.9001C209.379 60.6975 213.168 58.2761 217.464 56.6358C221.838 54.9955 226.446 54.1753 231.289 54.1753C234.648 54.1753 237.694 54.4878 240.428 55.1126C243.162 55.6594 245.505 56.4405 247.458 57.456C249.411 58.4714 250.895 59.6431 251.911 60.9709C252.926 62.2988 253.434 63.7048 253.434 65.1889Z" fill="white"/>
<path d="M287.658 117.679C289.923 117.679 291.993 117.484 293.868 117.093C295.742 116.625 297.109 116.078 297.969 115.453V102.448L286.604 103.502C283.479 103.815 281.097 104.518 279.456 105.611C277.816 106.627 276.996 108.267 276.996 110.532C276.996 112.797 277.816 114.555 279.456 115.805C281.175 117.054 283.909 117.679 287.658 117.679ZM287.189 69.9927C294.844 69.9927 300.937 71.633 305.467 74.9137C310.076 78.1943 312.38 83.2715 312.38 90.1453V117.211C312.38 119.085 311.911 120.569 310.974 121.663C310.037 122.756 308.865 123.733 307.459 124.592C305.272 125.92 302.499 126.974 299.14 127.755C295.782 128.537 291.954 128.927 287.658 128.927C279.847 128.927 273.676 127.443 269.146 124.475C264.694 121.429 262.467 116.898 262.467 110.884C262.467 105.65 264.108 101.667 267.388 98.9327C270.747 96.1207 275.59 94.4023 281.917 93.7774L297.969 92.1371V90.0281C297.969 87.0599 296.875 84.8728 294.688 83.4668C292.579 82.0608 289.572 81.3578 285.666 81.3578C282.62 81.3578 279.652 81.7484 276.762 82.5295C273.872 83.2325 271.294 84.1307 269.029 85.2243C268.169 84.5994 267.427 83.7792 266.802 82.7638C266.256 81.6703 265.982 80.4986 265.982 79.2488C265.982 77.6866 266.334 76.4368 267.037 75.4995C267.818 74.4841 269.029 73.5858 270.669 72.8047C272.934 71.8674 275.512 71.1644 278.402 70.6957C281.292 70.227 284.221 69.9927 287.189 69.9927Z" fill="white"/>
<path d="M409.565 127.052C408.94 127.209 408.002 127.404 406.753 127.638C405.581 127.873 404.292 127.99 402.886 127.99C400.074 127.99 398.004 127.482 396.676 126.467C395.427 125.451 394.802 123.655 394.802 121.077V90.6139C394.802 87.4895 393.942 85.2243 392.224 83.8183C390.506 82.4123 388.24 81.7093 385.428 81.7093C383.554 81.7093 381.718 82.0608 379.922 82.7638C378.203 83.4668 376.68 84.4041 375.352 85.5758C375.586 86.6693 375.704 87.7629 375.704 88.8564V127.052C375.079 127.209 374.141 127.404 372.892 127.638C371.72 127.873 370.431 127.99 369.025 127.99C366.213 127.99 364.143 127.482 362.815 126.467C361.566 125.451 360.941 123.655 360.941 121.077V90.6139C360.941 87.4895 360.042 85.2243 358.246 83.8183C356.449 82.4123 354.145 81.7093 351.333 81.7093C349.38 81.7093 347.584 82.0217 345.943 82.6466C344.303 83.2715 342.936 83.8964 341.843 84.5213V127.052C341.14 127.209 340.202 127.404 339.031 127.638C337.859 127.873 336.531 127.99 335.047 127.99C332.313 127.99 330.282 127.482 328.954 126.467C327.627 125.451 326.963 123.655 326.963 121.077V83.4668C326.963 81.6702 327.353 80.1861 328.134 79.0145C328.915 77.7647 330.126 76.5931 331.766 75.4995C334.11 73.9373 337.078 72.6485 340.671 71.633C344.264 70.5395 347.974 69.9927 351.802 69.9927C358.91 69.9927 364.69 71.9064 369.142 75.7338C371.408 74.0935 373.985 72.7266 376.875 71.633C379.843 70.5395 383.319 69.9927 387.303 69.9927C390.349 69.9927 393.239 70.3833 395.973 71.1644C398.707 71.8674 401.051 73.039 403.003 74.6794C405.034 76.3197 406.635 78.4287 407.807 81.0063C408.979 83.5058 409.565 86.5131 409.565 90.0281V127.052Z" fill="white"/>
<path d="M436.516 106.08C437.61 110.063 439.641 112.954 442.609 114.75C445.577 116.547 449.248 117.445 453.623 117.445C456.903 117.445 459.911 116.976 462.644 116.039C465.456 115.023 467.722 113.969 469.44 112.875C470.534 113.5 471.432 114.36 472.135 115.453C472.838 116.547 473.189 117.718 473.189 118.968C473.189 120.53 472.643 121.936 471.549 123.186C470.534 124.358 469.089 125.373 467.214 126.232C465.417 127.092 463.269 127.755 460.77 128.224C458.27 128.693 455.575 128.927 452.685 128.927C448.077 128.927 443.859 128.302 440.031 127.052C436.282 125.803 433.04 123.928 430.307 121.429C427.651 118.851 425.542 115.687 423.98 111.938C422.496 108.189 421.753 103.815 421.753 98.8155C421.753 93.9727 422.496 89.7547 423.98 86.1616C425.464 82.5685 427.456 79.5613 429.955 77.1398C432.533 74.7184 435.501 72.9219 438.86 71.7502C442.218 70.5785 445.773 69.9927 449.522 69.9927C453.349 69.9927 456.864 70.6176 460.067 71.8674C463.269 73.039 466.003 74.7184 468.268 76.9055C470.534 79.0145 472.291 81.5921 473.541 84.6385C474.869 87.6067 475.533 90.8482 475.533 94.3632C475.533 96.5503 474.947 98.1906 473.775 99.2842C472.682 100.378 471.119 101.081 469.089 101.393L436.516 106.08ZM449.522 81.1235C445.694 81.1235 442.492 82.4123 439.914 84.99C437.337 87.4895 435.892 91.0826 435.579 95.7692L461.59 91.9027C461.277 89.0126 460.145 86.5131 458.192 84.4041C456.239 82.217 453.349 81.1235 449.522 81.1235Z" fill="white"/>
<path d="M502.619 127.052C501.994 127.209 501.057 127.404 499.807 127.638C498.635 127.873 497.347 127.99 495.941 127.99C493.129 127.99 491.059 127.482 489.731 126.467C488.481 125.451 487.856 123.655 487.856 121.077V51.0118C488.481 50.7775 489.379 50.5822 490.551 50.426C491.801 50.1917 493.129 50.0745 494.535 50.0745C497.347 50.0745 499.377 50.5822 500.627 51.5977C501.955 52.6131 502.619 54.4096 502.619 56.9873V127.052Z" fill="white"/>
<path d="M541.629 116.508C546.16 116.508 549.48 115.648 551.589 113.93C553.698 112.133 554.752 109.907 554.752 107.252C554.752 104.83 553.932 102.916 552.292 101.51C550.651 100.026 548.152 98.7766 544.793 97.7611L537.294 95.4178C534.326 94.4805 531.631 93.426 529.21 92.2543C526.788 91.0827 524.719 89.7158 523 88.1535C521.282 86.5132 519.954 84.6386 519.016 82.5296C518.079 80.3425 517.61 77.7648 517.61 74.7966C517.61 68.4697 519.993 63.4706 524.758 59.7994C529.522 56.0501 536.045 54.1754 544.324 54.1754C547.605 54.1754 550.612 54.4488 553.346 54.9956C556.158 55.4642 558.58 56.1672 560.61 57.1046C562.641 57.9638 564.203 59.0573 565.297 60.3852C566.469 61.7131 567.055 63.1972 567.055 64.8375C567.055 66.3997 566.664 67.7667 565.883 68.9383C565.18 70.0319 564.282 70.9302 563.188 71.6331C561.313 70.3053 558.814 69.1727 555.689 68.2353C552.643 67.2199 549.284 66.7122 545.613 66.7122C541.551 66.7122 538.466 67.4542 536.357 68.9383C534.248 70.3443 533.194 72.2971 533.194 74.7966C533.194 76.8275 533.897 78.3897 535.303 79.4833C536.787 80.5768 539.091 81.6313 542.215 82.6467L548.894 84.7557C555.689 86.7866 560.962 89.5595 564.711 93.0745C568.46 96.5895 570.335 101.354 570.335 107.369C570.335 110.571 569.71 113.5 568.46 116.156C567.211 118.812 565.375 121.116 562.954 123.069C560.61 124.944 557.642 126.389 554.049 127.404C550.534 128.498 546.511 129.044 541.981 129.044C538.388 129.044 535.068 128.732 532.022 128.107C529.054 127.482 526.476 126.662 524.289 125.647C522.102 124.553 520.383 123.303 519.134 121.897C517.962 120.413 517.376 118.812 517.376 117.094C517.376 115.297 517.884 113.774 518.899 112.524C519.993 111.196 521.243 110.22 522.649 109.595C524.601 111.313 527.179 112.915 530.382 114.399C533.584 115.805 537.333 116.508 541.629 116.508Z" fill="white"/>
<path d="M597.062 109.946C597.062 112.446 597.804 114.242 599.288 115.336C600.85 116.43 602.998 116.976 605.732 116.976C607.06 116.976 608.388 116.82 609.716 116.508C611.122 116.195 612.371 115.805 613.465 115.336C614.09 115.961 614.598 116.742 614.988 117.679C615.457 118.539 615.691 119.554 615.691 120.726C615.691 123.069 614.637 125.022 612.528 126.584C610.419 128.068 607.021 128.81 602.334 128.81C596.164 128.81 591.282 127.443 587.689 124.709C584.174 121.897 582.416 117.289 582.416 110.884V57.1046C583.041 56.9483 583.939 56.7531 585.111 56.5187C586.361 56.2844 587.689 56.1672 589.095 56.1672C591.828 56.1672 593.82 56.675 595.07 57.6904C596.398 58.7058 597.062 60.5024 597.062 63.08V72.8048H614.285C614.676 73.4297 615.027 74.2499 615.34 75.2653C615.652 76.2807 615.808 77.3743 615.808 78.5459C615.808 80.5768 615.34 82.0609 614.402 82.9982C613.465 83.9356 612.215 84.4042 610.653 84.4042H597.062V109.946Z" fill="white"/>
<path d="M678.587 116.273C678.587 118.07 678.275 119.593 677.65 120.843C677.025 122.014 675.892 123.069 674.252 124.006C671.987 125.412 669.097 126.584 665.582 127.521C662.145 128.459 658.2 128.927 653.748 128.927C649.686 128.927 646.015 128.459 642.735 127.521C639.454 126.662 636.642 125.295 634.299 123.42C631.955 121.546 630.159 119.163 628.909 116.273C627.659 113.383 627.034 109.946 627.034 105.963V71.8675C627.659 71.6331 628.557 71.4379 629.729 71.2816C630.979 71.0473 632.346 70.9301 633.83 70.9301C636.564 70.9301 638.595 71.4379 639.923 72.4533C641.25 73.3906 641.914 75.1872 641.914 77.8429V105.728C641.914 109.79 642.93 112.719 644.961 114.516C647.07 116.234 650.038 117.094 653.865 117.094C656.287 117.094 658.318 116.859 659.958 116.391C661.676 115.922 662.965 115.414 663.824 114.867V71.8675C664.449 71.6331 665.348 71.4379 666.519 71.2816C667.769 71.0473 669.097 70.9301 670.503 70.9301C673.315 70.9301 675.346 71.4379 676.595 72.4533C677.923 73.3906 678.587 75.1872 678.587 77.8429V116.273Z" fill="white"/>
<path d="M744.834 116.391C744.834 118.187 744.443 119.632 743.662 120.726C742.881 121.819 741.709 122.874 740.147 123.889C738.194 125.139 735.617 126.272 732.414 127.287C729.212 128.38 725.501 128.927 721.283 128.927C711.91 128.927 704.45 126.545 698.905 121.78C693.437 116.937 690.703 109.556 690.703 99.6358C690.703 94.4805 691.445 90.0672 692.929 86.396C694.413 82.6467 696.405 79.5614 698.905 77.1399C701.482 74.7185 704.49 72.922 707.926 71.7503C711.363 70.5787 715.073 69.9928 719.057 69.9928C721.166 69.9928 723.158 70.2272 725.033 70.6958C726.907 71.0864 728.587 71.5941 730.071 72.219V51.0119C730.696 50.7776 731.594 50.5823 732.766 50.4261C734.015 50.1918 735.343 50.0746 736.749 50.0746C739.561 50.0746 741.592 50.5823 742.842 51.5978C744.17 52.6132 744.834 54.4098 744.834 56.9874V116.391ZM730.071 84.1699C728.899 83.4669 727.532 82.8811 725.97 82.4124C724.408 81.9437 722.728 81.7094 720.932 81.7094C716.558 81.7094 712.925 83.1154 710.035 85.9274C707.145 88.7394 705.7 93.3479 705.7 99.753C705.7 105.767 707.067 110.181 709.801 112.993C712.613 115.727 716.401 117.094 721.166 117.094C723.197 117.094 724.915 116.859 726.321 116.391C727.806 115.922 729.055 115.375 730.071 114.75V84.1699Z" fill="white"/>
<path d="M760.462 72.1018C761.086 71.9456 761.985 71.7503 763.156 71.516C764.406 71.2816 765.734 71.1645 767.14 71.1645C769.952 71.1645 771.983 71.6722 773.233 72.6876C774.561 73.7031 775.224 75.4996 775.224 78.0773V127.053C774.6 127.209 773.662 127.404 772.413 127.638C771.241 127.873 769.952 127.99 768.546 127.99C765.734 127.99 763.664 127.482 762.336 126.467C761.086 125.451 760.462 123.655 760.462 121.077V72.1018ZM759.29 55.1128C759.29 52.8475 760.071 50.9338 761.633 49.3716C763.274 47.7313 765.344 46.9111 767.843 46.9111C770.343 46.9111 772.373 47.7313 773.936 49.3716C775.498 50.9338 776.279 52.8475 776.279 55.1128C776.279 57.4561 775.498 59.4479 773.936 61.0882C772.373 62.6504 770.343 63.4315 767.843 63.4315C765.344 63.4315 763.274 62.6504 761.633 61.0882C760.071 59.4479 759.29 57.4561 759.29 55.1128Z" fill="white"/>
<path d="M845.257 99.4015C845.257 103.932 844.554 108.033 843.148 111.704C841.82 115.297 839.906 118.382 837.407 120.96C834.907 123.538 831.9 125.529 828.385 126.935C824.87 128.263 820.925 128.927 816.551 128.927C812.177 128.927 808.232 128.263 804.717 126.935C801.202 125.529 798.195 123.577 795.696 121.077C793.196 118.5 791.243 115.414 789.837 111.821C788.509 108.15 787.845 104.01 787.845 99.4015C787.845 94.8711 788.509 90.8093 789.837 87.2162C791.243 83.545 793.196 80.4596 795.696 77.9601C798.273 75.3825 801.32 73.4297 804.835 72.1018C808.35 70.6958 812.255 69.9928 816.551 69.9928C820.847 69.9928 824.753 70.6958 828.268 72.1018C831.783 73.4297 834.79 75.3825 837.289 77.9601C839.867 80.5378 841.82 83.6622 843.148 87.3334C844.554 90.9265 845.257 94.9492 845.257 99.4015ZM816.551 81.7094C812.333 81.7094 809.013 83.2716 806.592 86.396C804.171 89.4424 802.96 93.7775 802.96 99.4015C802.96 105.104 804.132 109.478 806.475 112.524C808.896 115.57 812.255 117.094 816.551 117.094C820.847 117.094 824.167 115.57 826.51 112.524C828.932 109.4 830.142 105.025 830.142 99.4015C830.142 93.7775 828.932 89.4424 826.51 86.396C824.089 83.2716 820.769 81.7094 816.551 81.7094Z" fill="white"/>
<defs>
<clipPath id="clip0_663_197">
<rect width="157.671" height="161.955" fill="white" transform="translate(0 7)"/>
</clipPath>
</defs>
</svg>
